<?xml version="1.0" encoding="UTF-8"?>
<!DOCTYPE svg PUBLIC "-//W3C//DTD SVG 1.1//EN" "http://www.w3.org/Graphics/SVG/1.1/DTD/svg11.dtd">
<!-- Creator: CorelDRAW -->
<svg xmlns="http://www.w3.org/2000/svg" xml:space="preserve" width="2048px" height="2048px" style="shape-rendering:geometricPrecision; text-rendering:geometricPrecision; image-rendering:optimizeQuality; fill-rule:evenodd; clip-rule:evenodd"
viewBox="0 0 2048 2048"
 xmlns:xlink="http://www.w3.org/1999/xlink">
 <defs>
  <style type="text/css">
   <![CDATA[
    .fil1 {fill:none}
    .fil0 {fill:#424242}
   ]]>
  </style>
 </defs>
 <g id="Layer_x0020_1">
  <metadata id="CorelCorpID_0Corel-Layer"/>
  <path class="fil0" d="M255.999 1546.67l1536 0 0 -149.022c-8.43662,3.88111 -17.8228,6.04843 -27.7181,6.04843 -36.6744,0 -66.4052,-29.7307 -66.4052,-66.4064 0,-36.6744 29.7307,-66.4052 66.4052,-66.4052 9.89528,0 19.2815,2.16732 27.7181,6.04843l0 -192.573c-8.43662,3.88111 -17.8228,6.04843 -27.7181,6.04843 -36.6744,0 -66.4052,-29.7307 -66.4052,-66.4064 0,-36.6744 29.7307,-66.4052 66.4052,-66.4052 9.89528,0 19.2815,2.16732 27.7181,6.04843l0 -192.573c-8.43662,3.88111 -17.8228,6.04843 -27.7181,6.04843 -36.6744,0 -66.4052,-29.7307 -66.4052,-66.4064 0,-36.6744 29.7307,-66.4052 66.4052,-66.4052 9.89528,0 19.2815,2.16732 27.7181,6.04843l0 -149.023 -1536 0 0 149.022c8.43544,-3.87992 17.8228,-6.04725 27.717,-6.04725 36.6756,0 66.4064,29.7307 66.4064,66.4052 0,36.6756 -29.7307,66.4064 -66.4064,66.4064 -9.8941,0 -19.2815,-2.16732 -27.717,-6.04725l0 192.571c8.43544,-3.87992 17.8228,-6.04725 27.717,-6.04725 36.6756,0 66.4064,29.7307 66.4064,66.4052 0,36.6756 -29.7307,66.4064 -66.4064,66.4064 -9.8941,0 -19.2815,-2.16732 -27.717,-6.04725l0 192.571c8.43544,-3.87992 17.8228,-6.04725 27.717,-6.04725 36.6756,0 66.4064,29.7307 66.4064,66.4052 0,36.6756 -29.7307,66.4064 -66.4064,66.4064 -9.8941,0 -19.2815,-2.16732 -27.717,-6.04725l0 149.021zm196.086 -735.093c0,18.0496 14.6327,32.6823 32.6811,32.6823l1078.47 0c18.0484,0 32.6811,-14.6327 32.6811,-32.6823 0,-18.0484 -14.6327,-32.6811 -32.6811,-32.6811l-1078.47 0c-18.0484,0 -32.6811,14.6327 -32.6811,32.6811zm63 140.084l0 35.7166 45.5457 0 0 108.866 44.6717 0 0 -108.866 45.58 0 0 -35.7166 -135.797 0zm195.978 0l0 144.582 44.7721 0 0 -144.582 -44.7721 0zm128.887 16.8307c-12.7252,12.8256 -19.0866,31.2402 -19.0866,55.1741 0,17.9433 3.63544,32.654 10.839,44.1662 7.2378,11.5122 15.8563,19.5579 25.8201,24.137 9.93072,4.5437 22.7906,6.83268 38.5111,6.83268 12.926,0 23.5973,-1.85079 31.9796,-5.62205 8.38229,-3.73583 15.4181,-9.29056 21.0732,-16.663 5.65512,-7.37245 9.79489,-16.5284 12.4217,-27.502l-39.1512 -11.85c-1.98543,9.15709 -5.14961,16.1256 -9.5256,20.9055 -4.37599,4.81418 -10.8402,7.20355 -19.3902,7.20355 -8.78623,0 -15.6189,-2.96221 -20.5004,-8.92087 -4.84843,-5.95867 -7.30512,-16.9323 -7.30512,-32.9894 0,-12.9614 2.05276,-22.454 6.12638,-28.513 5.38583,-8.14725 13.1622,-12.2197 23.2606,-12.2197 4.47756,0 8.51694,0.908268 12.1524,2.76024 3.60236,1.85197 6.66615,4.47756 9.15709,7.87678 1.51536,2.05394 2.96221,5.28544 4.34292,9.69568l39.4524 -8.78623c-5.04922,-15.2492 -12.7913,-26.5595 -23.2264,-33.9331 -10.4362,-7.37245 -24.7441,-11.041 -42.9555,-11.041 -23.2606,0 -41.2701,6.42993 -53.9953,19.2886zm181.637 -16.8307l0 144.582 44.6705 0 0 -35.3126 23.0941 -24.1701 30.4642 59.4827 55.0406 0 -55.0406 -90.0485 52.6831 -54.5339 -59.3811 0 -46.8603 54.6355 0 -54.6355 -44.6705 0zm206.179 0l0 144.582 121.893 0 0 -32.7544 -77.1213 0 0 -28.4788 69.5138 0 0 -29.4886 -69.5138 0 0 -22.9914 74.9327 0 0 -30.8693 -119.705 0zm173.995 0l0 35.7166 45.5457 0 0 108.866 44.6717 0 0 -108.866 45.58 0 0 -35.7166 -135.797 0zm-916.996 252.084c-18.0484,0 -32.6811,14.6327 -32.6811,32.6823 0,18.0484 14.6327,32.6811 32.6811,32.6811l1078.47 0c18.0484,0 32.6811,-14.6327 32.6811,-32.6811 0,-18.0496 -14.6327,-32.6823 -32.6811,-32.6823l-1078.47 0z"/>
 </g>
 <rect class="fil1" width="2048" height="2048"/>
</svg>
