<?xml version="1.0" encoding="UTF-8"?>
<svg id="Layer_1" xmlns="http://www.w3.org/2000/svg" xmlns:xlink="http://www.w3.org/1999/xlink" version="1.1" viewBox="0 0 1200 1200">
  <!-- Generator: Adobe Illustrator 29.0.1, SVG Export Plug-In . SVG Version: 2.1.0 Build 192)  -->
  <defs>
    <style>
      .st0 {
        fill: #fff;
      }
    </style>
  </defs>
  <path class="st0" d="M401.2,637.8c83.8,0,151.3-21.8,183.2-32.7,4.8-1.6,4.8-8.4,0-10.1-31.9-10.9-99.4-32.7-183.2-32.7-82.9,0-114.7,20.6-125.6,32.1-3,3.1-3,8.1,0,11.2,11,11.6,42.8,32.1,125.6,32.1Z"/>
  <g>
    <path class="st0" d="M487.3,546.6c39.1,11.7,72.6,30.9,87.8,40.4s3-.6,1.8-1.7c-16.8-17.7-62.2-62.1-104.6-74.7-40.5-12.1-66.8,8.1-77.1,18.6-2,2,0,5.4,3.3,5.3,15.2-.4,49.3.4,88.8,12.2Z"/>
    <path class="st0" d="M487.9,490.4c50.4,32.5,88.5,75.4,105.3,96,1.6,1.9,4.6,0,3.6-2.2-14.7-34.7-56-122.7-110.7-157.9-52.1-33.6-101.4-9.8-122.4,3.8-4.1,2.6-2.9,8.9,1.9,9.9,22.2,4.6,71.5,17.6,122.4,50.5Z"/>
  </g>
  <image width="78" height="105" transform="translate(500 409)" xlink:href="4-1.png"/>
  <path class="st0" d="M401.2,562.6c83.8,0,151.3,21.8,183.2,32.7,4.8,1.6,4.8,8.4,0,10.1-31.9,10.9-99.4,32.7-183.2,32.7-82.9,0-114.7-20.6-125.6-32.1-3-3.1-3-8.1,0-11.2,11-11.6,42.8-32.1,125.6-32.1Z"/>
  <path class="st0" d="M487.3,653.8c39.1-11.7,72.6-30.9,87.8-40.4,1.4-.9,3,.6,1.8,1.7-16.8,17.7-62.2,62.1-104.6,74.7-40.5,12.1-66.8-8.1-77.1-18.6-2-2,0-5.4,3.3-5.3,15.2.4,49.3-.4,88.8-12.2Z"/>
  <path class="st0" d="M487.9,709.9c50.4-32.5,88.5-75.4,105.3-96,1.6-1.9,4.6,0,3.6,2.2-14.7,34.7-56,122.7-110.7,157.9-52.1,33.6-101.4,9.8-122.4-3.8-4.1-2.6-2.9-8.9,1.9-9.9,22.2-4.6,71.5-17.6,122.4-50.5Z"/>
  <image width="78" height="105" transform="translate(500 686)" xlink:href="4-2.png"/>
  <path class="st0" d="M798.8,562.6c-83.8,0-151.3,21.8-183.2,32.7-4.8,1.6-4.8,8.4,0,10.1,31.9,10.9,99.4,32.7,183.2,32.7,82.9,0,114.7-20.6,125.6-32.1,3-3.1,3-8.1,0-11.2-11-11.6-42.8-32.1-125.6-32.1Z"/>
  <g>
    <path class="st0" d="M712.7,653.8c-39.1-11.7-72.6-30.9-87.8-40.4-1.4-.9-3,.6-1.8,1.7,16.8,17.7,62.2,62.1,104.6,74.7,40.5,12.1,66.8-8.1,77.1-18.6,2-2,0-5.4-3.3-5.3-15.2.4-49.3-.4-88.8-12.2Z"/>
    <path class="st0" d="M712.1,709.9c-50.4-32.5-88.5-75.4-105.3-96-1.6-1.9-4.6,0-3.6,2.2,14.7,34.7,56,122.7,110.7,157.9,52.1,33.6,101.4,9.8,122.4-3.8,4.1-2.6,2.9-8.9-1.9-9.9-22.2-4.6-71.5-17.6-122.4-50.5Z"/>
  </g>
  <image width="78" height="105" transform="translate(622 686)" xlink:href="4-3.png"/>
  <path class="st0" d="M798.8,637.8c-83.8,0-151.3-21.8-183.2-32.7-4.8-1.6-4.8-8.4,0-10.1,31.9-10.9,99.4-32.7,183.2-32.7,82.9,0,114.7,20.6,125.6,32.1,3,3.1,3,8.1,0,11.2-11,11.6-42.8,32.1-125.6,32.1Z"/>
  <path class="st0" d="M712.7,546.6c-39.1,11.7-72.6,30.9-87.8,40.4-1.4.9-3-.6-1.8-1.7,16.8-17.7,62.2-62.1,104.6-74.7,40.5-12.1,66.8,8.1,77.1,18.6,2,2,0,5.4-3.3,5.3-15.2-.4-49.3.4-88.8,12.2Z"/>
  <path class="st0" d="M712.1,490.4c-50.4,32.5-88.5,75.4-105.3,96-1.6,1.9-4.6,0-3.6-2.2,14.7-34.7,56-122.7,110.7-157.9,52.1-33.6,101.4-9.8,122.4,3.8,4.1,2.6,2.9,8.9-1.9,9.9-22.2,4.6-71.5,17.6-122.4,50.5Z"/>
  <image width="78" height="105" transform="translate(622 409)" xlink:href="4-4.png"/>
  <circle class="st0" cx="600.5" cy="790.6" r="30.2"/>
  <circle class="st0" cx="599.3" cy="409.4" r="30.2"/>
</svg>