<?xml version="1.0" encoding="UTF-8"?>
<svg id="Layer_1" xmlns="http://www.w3.org/2000/svg" xmlns:xlink="http://www.w3.org/1999/xlink" version="1.1" viewBox="0 0 1200 1200">
  <!-- Generator: Adobe Illustrator 29.0.1, SVG Export Plug-In . SVG Version: 2.1.0 Build 192)  -->
  <defs>
    <style>
      .st0 {
        fill: #fff;
      }
    </style>
  </defs>
  <g>
    <path class="st0" d="M436.6,670.8c51.8-15.4,96.1-40.9,116.1-53.4,1.9-1.2,3.9.8,2.4,2.3-22.3,23.4-82.3,82.1-138.4,98.9-53.5,16-88.3-10.7-102.1-24.6-2.7-2.7,0-7.2,4.4-7.1,20.1.5,65.3-.6,117.5-16.2Z"/>
    <path class="st0" d="M763.8,670.8c-51.8-15.4-96.1-40.9-116.1-53.4-1.9-1.2-3.9.8-2.4,2.3,22.3,23.4,82.3,82.1,138.4,98.9,53.5,16,88.3-10.7,102.1-24.6,2.7-2.7,0-7.2-4.4-7.1-20.1.5-65.3-.6-117.5-16.2Z"/>
    <image width="164" height="63" transform="translate(227 699)" xlink:href="2-1.png"/>
    <image width="164" height="63" transform="translate(809 699)" xlink:href="2-2.png"/>
    <path class="st0" d="M468.5,716.8c53.7-34.6,94.3-80.3,112.2-102.4,1.7-2.1,4.9,0,3.9,2.4-15.7,37-59.7,130.7-118,168.3-55.6,35.8-108.1,10.4-130.4-4-4.3-2.8-3.1-9.5,2-10.5,23.7-4.9,76.2-18.8,130.4-53.8Z"/>
    <path class="st0" d="M731.8,716.8c-53.7-34.6-94.3-80.3-112.2-102.4-1.7-2.1-4.9,0-3.9,2.4,15.7,37,59.7,130.7,118,168.3,55.6,35.8,108.1,10.4,130.4-4,4.3-2.8,3.1-9.5-2-10.5-23.7-4.9-76.2-18.8-130.4-53.8Z"/>
    <circle class="st0" cx="600.6" cy="928.1" r="30.2"/>
  </g>
  <g>
    <path class="st0" d="M763.4,529.2c-51.8,15.4-96.1,40.9-116.1,53.4-1.9,1.2-3.9-.8-2.4-2.3,22.3-23.4,82.3-82.1,138.4-98.9,53.5-16,88.3,10.7,102.1,24.6,2.7,2.7,0,7.2-4.4,7.1-20.1-.5-65.3.6-117.5,16.2Z"/>
    <path class="st0" d="M436.2,529.2c51.8,15.4,96.1,40.9,116.1,53.4,1.9,1.2,3.9-.8,2.4-2.3-22.3-23.4-82.3-82.1-138.4-98.9-53.5-16-88.3,10.7-102.1,24.6-2.7,2.7,0,7.2,4.4,7.1,20.1-.5,65.3.6,117.5,16.2Z"/>
    <image width="164" height="63" transform="translate(809 438)" xlink:href="2-3.png"/>
    <image width="164" height="63" transform="translate(227 438)" xlink:href="2-4.png"/>
    <path class="st0" d="M731.5,483.2c-53.7,34.6-94.3,80.3-112.2,102.4-1.7,2.1-4.9,0-3.9-2.4,15.7-37,59.7-130.7,118-168.3,55.6-35.8,108.1-10.4,130.4,4,4.3,2.8,3.1,9.5-2,10.5-23.7,4.9-76.2,18.8-130.4,53.8Z"/>
    <path class="st0" d="M468.2,483.2c53.7,34.6,94.3,80.3,112.2,102.4,1.7,2.1,4.9,0,3.9-2.4-15.7-37-59.7-130.7-118-168.3-55.6-35.8-108.1-10.4-130.4,4-4.3,2.8-3.1,9.5,2,10.5,23.7,4.9,76.2,18.8,130.4,53.8Z"/>
    <path class="st0" d="M569.6,427.9c0,67.5,17.6,122,26.4,147.6,1.3,3.9,6.8,3.9,8.1,0,8.8-25.7,26.4-80.1,26.4-147.6,0-66.8-16.6-92.4-25.9-101.2-2.5-2.4-6.5-2.4-9,0-9.3,8.8-25.9,34.5-25.9,101.2Z"/>
    <path class="st0" d="M389.4,633.6c74.6,0,134.7-19.4,163.1-29.1,4.3-1.5,4.3-7.5,0-9-28.4-9.7-88.5-29.1-163.1-29.1-73.8,0-102.1,18.3-111.8,28.6-2.7,2.8-2.7,7.2,0,10,9.8,10.3,38.1,28.6,111.8,28.6Z"/>
    <path class="st0" d="M808.7,566.4c-74.6,0-134.7,19.4-163.1,29.1-4.3,1.5-4.3,7.5,0,9,28.4,9.7,88.5,29.1,163.1,29.1,73.8,0,102.1-18.3,111.8-28.6,2.7-2.8,2.7-7.2,0-10-9.8-10.3-38.1-28.6-111.8-28.6Z"/>
    <circle class="st0" cx="599.4" cy="271.9" r="30.2"/>
  </g>
  <path class="st0" d="M630.4,774.4c0-67.5-17.6-122-26.4-147.6-1.3-3.9-6.8-3.9-8.1,0-8.8,25.7-26.4,80.1-26.4,147.6,0,66.8,16.6,92.4,25.9,101.2,2.5,2.4,6.5,2.4,9,0,9.3-8.8,25.9-34.5,25.9-101.2Z"/>
</svg>