<?xml version="1.0" encoding="UTF-8"?>
<svg id="Layer_2" xmlns="http://www.w3.org/2000/svg" viewBox="0 0 590.82 211.91">
  <defs>
    <style>
      .cls-1 {
        fill: #fff;
      }
    </style>
  </defs>
  <g id="Layer_1-2" data-name="Layer_1">
    <g>
      <path class="cls-1" d="M268.14,138.68c0-50.88,21.5-116.86,26.37-131.15.32-.93,1.63-.93,1.94,0,4.87,14.29,26.37,80.27,26.37,131.15s-19.95,68.15-25.77,72.69c-.93.73-2.21.73-3.14,0-5.81-4.54-25.77-23.68-25.77-72.69Z"/>
      <path class="cls-1" d="M229.49,93.75c25.71-33.99,43.29-69.84,50.64-86.02.51-1.13,2.21-.56,1.95.65-5.03,23.39-20.18,84.47-47.73,120.91-26.27,34.73-56.27,37.08-69.2,36.19-2.39-.16-3.3-3.2-1.4-4.66,11.16-8.59,38.94-31.62,65.75-67.06Z"/>
      <path class="cls-1" d="M274.28.19c.58-.53,1.46.14,1.1.84-6.91,13.31-32.94,61.17-59.65,81.43-58.7,44.53-189.97,30.36-207.32,54.65-17.08,23.9-15.64-79.68,77.19-59.78,2.04.44,4.07-1.11,3.95-3.19-.55-9.33,12.15-25.95,66.67-16.84,2.12.35,3.96-1.45,3.66-3.57-1.1-7.93,2.28-22.87,47.76-13.78,17.3,3.46,55.82-29.97,66.64-39.76Z"/>
    </g>
    <g>
      <path class="cls-1" d="M361.32,93.75c-25.71-33.99-43.29-69.84-50.64-86.02-.51-1.13-2.21-.56-1.95.65,5.03,23.39,20.18,84.47,47.73,120.91,26.27,34.73,56.27,37.08,69.2,36.19,2.39-.16,3.3-3.2,1.4-4.66-11.16-8.59-38.94-31.62-65.75-67.06Z"/>
      <path class="cls-1" d="M316.54.19c-.58-.53-1.46.14-1.1.84,6.91,13.31,32.94,61.17,59.65,81.43,58.7,44.53,189.97,30.36,207.32,54.65,17.08,23.9,15.64-79.68-77.19-59.78-2.04.44-4.07-1.11-3.95-3.19.55-9.33-12.15-25.95-66.67-16.84-2.12.35-3.96-1.45-3.66-3.57,1.1-7.93-2.28-22.87-47.76-13.78-17.3,3.46-55.82-29.97-66.64-39.76Z"/>
    </g>
  </g>
</svg>